<?xml version="1.0" encoding="utf-8"?>
<!-- Generator: Adobe Illustrator 25.2.3, SVG Export Plug-In . SVG Version: 6.00 Build 0)  -->
<svg version="1.1" id="Layer_1" xmlns="http://www.w3.org/2000/svg" xmlns:xlink="http://www.w3.org/1999/xlink" x="0px" y="0px"
	 viewBox="0 0 185 37.7" style="enable-background:new 0 0 185 37.7;" xml:space="preserve">
<style type="text/css">
	.st0{fill:#435247;}
</style>
<path class="st0" d="M9.8,31.7v5c0,0.1,0,0.3,0,0.4c-0.1,0.4-0.4,0.6-0.8,0.5c-0.3,0-0.5-0.3-0.5-0.5c0-0.1,0-0.3,0-0.4v-5h-8
	c-0.1,0-0.2,0-0.4,0c-0.4,0-0.7-0.2-0.7-0.6c0-0.1,0-0.3,0.1-0.4c0.3-1.1,0.7-2.2,1-3.3L8.4,0.9c0-0.2,0.1-0.3,0.1-0.5
	C8.6,0.1,8.9,0,9.2,0s0.5,0.1,0.6,0.4C9.9,0.6,9.9,0.7,10,0.9l8.9,29.6c0.3,0.9,0,1.2-0.9,1.2C17.9,31.7,9.8,31.7,9.8,31.7z
	 M0.9,30.3h7.5c0-0.1,0-0.2,0-0.3c0-8.1,0-16.3,0-24.4l0,0l0,0L0.9,30.3z M9.8,30.3h7.6c-2.5-8.3-5-16.5-7.5-24.8
	c-0.1,0.6-0.1,11.3,0,11.7H10l0.6-0.2c0.2-0.1,0.4-0.2,0.6-0.2c0.3-0.1,0.7,0.1,0.8,0.4s-0.1,0.7-0.4,0.8c-0.1,0-0.2,0-0.3,0
	l-1.4,0.5V22l0.5-0.2c0.7-0.3,1.3-0.5,2-0.8c0.3-0.1,0.7,0,0.8,0.3s0,0.7-0.3,0.8c-0.1,0.1-0.2,0.1-0.3,0.2
	c-0.6,0.2-1.1,0.5-1.7,0.7l-1,0.4v3.5l0.5-0.1l2.9-1c0.1,0,0.3-0.1,0.4-0.1c0.3,0,0.6,0.2,0.7,0.5c0.1,0.3,0,0.6-0.3,0.7
	C14,27,13.9,27,13.8,27l-3.3,1.2L10,28.4L9.8,30.3z"/>
<g>
	<path class="st0" d="M115.3,12.8l-3,3.6l-0.3-0.3c-1.4-1.3-3.6-1.3-4.9,0.1c-0.6,0.6-1,1.5-1,2.4c0,0.6,0,1.2,0.2,1.7
		c0.3,1.2,1.3,2.1,2.6,2.2c0.5,0.1,1.1,0.1,1.6,0c0.5,0,0.5-0.1,0.5-0.6c0-0.3,0-0.5,0-0.8h-2.4c-0.1-1.4-0.1-2.7,0-4.1h7.1
		c0,0.1,0,0.3,0,0.4c0,2.6,0,5.1,0,7.7c0,0.3-0.1,0.5-0.4,0.6c-0.8,0.4-1.7,0.7-2.6,0.9c-1.2,0.3-2.4,0.4-3.6,0.4
		c-1.3,0-2.6-0.3-3.7-0.8c-1.9-0.8-3.4-2.4-4.1-4.3c-0.8-2-0.8-4.2,0-6.1c0.9-2.6,3.2-4.5,5.9-4.9c2.2-0.5,4.6-0.2,6.6,0.9
		C114.3,12,114.8,12.4,115.3,12.8z"/>
	<path class="st0" d="M129.7,20.4l3.9,6.3h-0.5c-1.7,0-3.4,0-5.1,0c-0.3,0-0.6-0.1-0.7-0.4c-0.8-1.6-1.7-3.2-2.6-4.8
		c-0.1-0.2-0.2-0.3-0.3-0.4c-0.1,1.9-0.1,3.7-0.1,5.6h-5V11.1c0.1,0,0.3,0,0.4,0h6.5c0.9,0,1.9,0.1,2.8,0.4c1.4,0.4,2.6,1.4,3.1,2.8
		c0.4,1.1,0.4,2.3,0.1,3.4s-1.1,2-2.1,2.5L129.7,20.4z M124.3,17.6c0.6,0.1,1.3,0.1,1.9-0.1c0.2-0.1,0.3-0.1,0.4-0.2
		c0.4-0.3,0.6-0.8,0.5-1.3s-0.5-0.8-1-0.8h-0.3c-0.5,0-1.1,0-1.6,0L124.3,17.6z"/>
	<path class="st0" d="M94.7,20.4l4,6.2c-0.1,0-0.3,0-0.4,0H93c-0.2,0-0.5-0.1-0.6-0.4c-0.9-1.6-1.7-3.2-2.6-4.9
		c-0.1-0.1-0.2-0.3-0.3-0.4c-0.2,0.2-0.2,0.3-0.2,0.5v5c-1.7,0.1-3.3,0.1-5,0V11.1c0.1,0,0.3,0,0.4,0h6.4c0.9,0,1.9,0.1,2.8,0.4
		c1.3,0.3,2.3,1.2,2.9,2.4c1.2,2.3,0.3,5.1-2,6.3L94.7,20.4z M89.4,15.1c-0.1,0.9-0.1,1.7,0,2.6c0.4,0,0.9,0,1.3,0s0.7-0.1,1-0.3
		c0.4-0.3,0.6-0.9,0.4-1.4c-0.1-0.4-0.5-0.8-0.9-0.8C90.7,15.1,90.1,15.1,89.4,15.1L89.4,15.1z"/>
	<path class="st0" d="M62,26.7h-5.9l-5.5-15.6h5.9l2.6,9.6h0.1c0.3-1,0.6-2.1,0.8-3.1s0.6-2.2,0.8-3.2s0.5-2.1,0.8-3.2h5.8l0,0l0,0
		c0,0-0.1,0.3-0.1,0.4C65.7,16.6,63.8,21.6,62,26.7z"/>
	<path class="st0" d="M179.7,26.7h-0.5c-1.4,0-2.9,0-4.4,0c-0.3,0-0.6-0.1-0.7-0.4c-1.3-2.2-2.6-4.4-3.8-6.6
		c-0.1-0.2-0.2-0.3-0.3-0.4c-0.1,1.2,0,2.5,0,3.7s0.1,2.4,0.1,3.6c-1.6,0.1-3.2,0.1-4.9,0.1l0,0l0,0c0-0.1,0-0.2,0-0.2v-15
		c0-0.1,0-0.1,0-0.2c0.3-0.1,4.5-0.1,5.2,0l4.4,7.9h0.1c0-2.6-0.1-5.2-0.2-7.8c1.6-0.1,3.2-0.1,4.9,0l0,0l0,0c0,0.1,0,0.2,0,0.3
		C179.6,16.6,179.6,21.6,179.7,26.7C179.7,26.6,179.7,26.7,179.7,26.7z"/>
	<path class="st0" d="M48.7,11.1v4.3c-0.6,0-1.3,0-1.9,0h-3.9v1.4h5.4c0.1,1.4,0.1,2.7,0.1,4.1c-0.6,0-1.2,0-1.8,0s-1.2,0-1.8,0H43
		v1.5c1,0,2,0,3.1,0h3v4.3c-0.4,0.1-10.5,0.1-11.1,0V11.1H48.7z"/>
	<path class="st0" d="M74.9,20.9v1.5c1,0.1,2,0,3.1,0h3.1v4.3c-0.3,0.1-10.3,0.2-11,0c-0.1-0.3-0.1-15,0-15.5h10.7v4.3H75
		c0,0.5,0,0.9,0,1.4c0.9,0,1.8,0,2.7,0h2.7V21L74.9,20.9z"/>
	<path class="st0" d="M161.1,20.9h-5.4v1.5c0.5,0,1,0,1.5,0h4.6c0.1,1.4,0.1,2.8,0,4.2c-0.4,0.1-10.6,0.1-11,0V11.1
		c0.4-0.1,9.9-0.1,10.6,0c0.1,1.4,0.1,2.9,0,4.3h-5.7v1.4c0.9,0,1.8,0,2.7,0h2.7L161.1,20.9z"/>
	<path class="st0" d="M141.2,15.4v1.4h5.4v4.1h-5.4c-0.1,0.5-0.1,1,0,1.5h6.1v4.2c-0.3,0.1-10.2,0.1-11,0l0,0l0,0c0-0.1,0-0.1,0-0.2
		V11.3c0-0.1,0-0.1,0-0.2c0.3-0.1,9.8-0.1,10.6,0c0.1,1.4,0.1,2.9,0,4.3L141.2,15.4z"/>
</g>
</svg>
